mastitorrents.com
 
http://mastitorrents.com/forums/index.php

Info :- Format : AVI Format/Info : Audio Video Interleave File size : 844 MiB Duration : 2h 46mn Overall bit rate : 710 Kbps Writing library : VirtualDub build 32842/release Video ID : 0 Format : MPEG-4 Visual Format profile : Advanced Simple@L5 Format settings, BVOP : Yes Format settings, QPel : No Format settings, GMC : No warppoints Format settings, Matrix : Default (H.263) Muxing mode : Packed bitstream Codec ID : XVID
Codec ID/Hint : XviD
Duration : 2h 46mn
Bit rate : 652 Kbps
Width : 640 pixels
Height : 360 pixels
Display aspect ratio : 16:9
Frame rate : 25.000 fps
Color space : YUV
Chroma subsampling : 4:2:0
Bit depth : 8 bits
Scan type : Progressive
Bits/(Pixel*Frame) : 0.113
Stream size : 775 MiB (92%)
Writing library : XviD 1.2.1 (UTC 2008-12-04)
Audio
ID : 1
Format : MPEG Audio
Format version : Version 2
Format profile : Layer 3
Mode : Joint stereo
Mode extension : Intensity Stereo + MS Stereo
Codec ID : 55 Codec ID/Hint : MP3 Duration : 2h 46mn
Bit rate mode : Constant
Bit rate : 48.0 Kbps
Channel(s) : 2 channels
Sampling rate : 24.0 KHz
Stream size : 57.0 MiB (7%)
Alignment : Split accross interleaves
Interleave, duration : 40 ms (1.00 video frame)
Interleave, preload duration : 500 ms 